<?xml version="1.0" encoding="UTF-8" standalone="no"?>
<svg
   width="35"
   height="10"
   fill="currentColor"
   class="bi bi-terminal-fill"
   viewBox="0 0 35 10"
   version="1.1"
   id="svg4"
   sodipodi:docname="header-img.svg"
   inkscape:version="1.2 (dc2aeda, 2022-05-15)"
   xmlns:inkscape="http://www.inkscape.org/namespaces/inkscape"
   xmlns:sodipodi="http://sodipodi.sourceforge.net/DTD/sodipodi-0.dtd"
   xmlns="http://www.w3.org/2000/svg"
   xmlns:svg="http://www.w3.org/2000/svg">
  <defs
     id="defs8" />
  <sodipodi:namedview
     id="namedview6"
     pagecolor="#505050"
     bordercolor="#eeeeee"
     borderopacity="1"
     inkscape:showpageshadow="0"
     inkscape:pageopacity="0"
     inkscape:pagecheckerboard="0"
     inkscape:deskcolor="#505050"
     showgrid="false"
     inkscape:zoom="13.010992"
     inkscape:cx="19.176093"
     inkscape:cy="7.2246604"
     inkscape:window-width="1366"
     inkscape:window-height="656"
     inkscape:window-x="0"
     inkscape:window-y="25"
     inkscape:window-maximized="0"
     inkscape:current-layer="svg4"
     showguides="false" />
  <g
     aria-label="Tap in."
     id="text10565"
     style="font-size:10.6667px;font-family:Roboto;-inkscape-font-specification:Roboto;text-align:center;text-anchor:middle;fill:#010101;stroke-width:10;stroke-opacity:0"
     transform="translate(-22.314942,-5.02863)">
    <path
       d="M 30.515433,6.3124724 H 28.150842 V 12.833326 H 26.843547 V 6.3124724 H 24.499789 V 5.2499691 h 6.015644 z"
       style="font-weight:500;-inkscape-font-specification:'Roboto Medium'"
       id="path10713" />
    <path
       d="m 33.880027,12.833326 q -0.08333,-0.161459 -0.145833,-0.526043 -0.604169,0.63021 -1.479172,0.63021 -0.848961,0 -1.385421,-0.484376 -0.53646,-0.484377 -0.53646,-1.197921 0,-0.901044 0.666669,-1.3802123 0.671877,-0.4843766 1.916673,-0.4843766 h 0.776044 V 9.0208143 q 0,-0.4375014 -0.244793,-0.6979189 -0.244792,-0.2656258 -0.744794,-0.2656258 -0.432293,0 -0.708335,0.2187507 -0.276043,0.2135423 -0.276043,0.5468767 h -1.265629 q 0,-0.4635431 0.307293,-0.8645861 0.307292,-0.4062512 0.833336,-0.6354186 0.531251,-0.2291674 1.182295,-0.2291674 0.989587,0 1.57813,0.5000016 0.588544,0.4947932 0.604169,1.3958377 v 2.5416748 q 0,0.760419 0.213542,1.213545 v 0.08854 z m -1.390629,-0.911461 q 0.375001,0 0.703127,-0.182292 0.333335,-0.182292 0.500002,-0.489585 v -1.062503 h -0.682294 q -0.703127,0 -1.057295,0.244792 -0.354168,0.244793 -0.354168,0.692711 0,0.364584 0.239584,0.583335 0.244793,0.213542 0.651044,0.213542 z"
       style="font-weight:500;-inkscape-font-specification:'Roboto Medium'"
       id="path10715" />
    <path
       d="m 41.218592,10.072901 q 0,1.307296 -0.593752,2.088548 -0.593752,0.776044 -1.593755,0.776044 -0.927086,0 -1.48438,-0.609377 V 15 H 36.281076 V 7.1978919 h 1.16667 l 0.05208,0.5729184 q 0.557293,-0.6770854 1.51563,-0.6770854 1.031253,0 1.614588,0.7708357 0.588544,0.7656275 0.588544,2.1302151 z M 39.958171,9.9635256 q 0,-0.8437527 -0.338543,-1.3385459 -0.333334,-0.4947932 -0.958336,-0.4947932 -0.776044,0 -1.114587,0.640627 v 2.5000075 q 0.343751,0.656252 1.125004,0.656252 0.604168,0 0.942711,-0.484376 0.343751,-0.489585 0.343751,-1.4791714 z"
       style="font-weight:500;-inkscape-font-specification:'Roboto Medium'"
       id="path10717" />
    <path
       d="M 46.291524,12.833326 H 45.025895 V 7.1978919 h 1.265629 z M 44.94777,5.7343456 q 0,-0.2916676 0.182292,-0.4843765 0.187501,-0.192709 0.531252,-0.192709 0.343751,0 0.531252,0.192709 0.1875,0.1927089 0.1875,0.4843765 0,0.2864592 -0.1875,0.4791682 -0.187501,0.1875006 -0.531252,0.1875006 -0.343751,0 -0.531252,-0.1875006 Q 44.94777,6.0208048 44.94777,5.7343456 Z"
       style="font-weight:500;-inkscape-font-specification:'Roboto Medium'"
       id="path10719" />
    <path
       d="m 48.843615,7.1978919 0.03646,0.6510437 q 0.625002,-0.7552107 1.64063,-0.7552107 1.760422,0 1.791672,2.0156313 v 3.7239698 h -1.26563 V 9.1822731 q 0,-0.53646 -0.234375,-0.7916691 -0.229168,-0.2604175 -0.755211,-0.2604175 -0.765627,0 -1.140629,0.6927105 v 4.010429 H 47.650903 V 7.1978919 Z"
       style="font-weight:500;-inkscape-font-specification:'Roboto Medium'"
       id="path10721" />
    <path
       d="m 54.39051,11.499989 q 0.354167,0 0.546876,0.203125 0.192709,0.197918 0.192709,0.500002 0,0.296876 -0.192709,0.494793 -0.192709,0.192709 -0.546876,0.192709 -0.338543,0 -0.53646,-0.192709 -0.197918,-0.192709 -0.197918,-0.494793 0,-0.302084 0.192709,-0.500002 0.192709,-0.203125 0.541669,-0.203125 z"
       style="font-weight:500;-inkscape-font-specification:'Roboto Medium'"
       id="path10723" />
  </g>
</svg>
