<?xml version="1.0" encoding="UTF-8" standalone="no"?>
<svg
   width="70"
   height="20"
   fill="currentColor"
   class="bi bi-terminal-fill"
   viewBox="0 0 70 20"
   version="1.1"
   id="svg4"
   sodipodi:docname="header-img.svg"
   inkscape:version="1.2 (dc2aeda, 2022-05-15)"
   xmlns:inkscape="http://www.inkscape.org/namespaces/inkscape"
   xmlns:sodipodi="http://sodipodi.sourceforge.net/DTD/sodipodi-0.dtd"
   xmlns="http://www.w3.org/2000/svg"
   xmlns:svg="http://www.w3.org/2000/svg">
  <defs
     id="defs8" />
  <sodipodi:namedview
     id="namedview6"
     pagecolor="#505050"
     bordercolor="#eeeeee"
     borderopacity="1"
     inkscape:showpageshadow="0"
     inkscape:pageopacity="0"
     inkscape:pagecheckerboard="0"
     inkscape:deskcolor="#505050"
     showgrid="false"
     inkscape:zoom="8.470452"
     inkscape:cx="30.281737"
     inkscape:cy="6.0209302"
     inkscape:window-width="1366"
     inkscape:window-height="656"
     inkscape:window-x="0"
     inkscape:window-y="25"
     inkscape:window-maximized="0"
     inkscape:current-layer="layer2"
     showguides="false" />
  <g
     inkscape:groupmode="layer"
     id="layer1"
     inkscape:label="Editable"
     style="display:none"
     sodipodi:insensitive="true">
    <text
       xml:space="preserve"
       style="font-weight:500;font-size:4px;font-family:Roboto;-inkscape-font-specification:'Roboto Medium';text-align:center;text-anchor:middle;display:none;fill:#000000;stroke-width:1.24266"
       x="34.907227"
       y="15.679491"
       id="text374-1"
       inkscape:label="H2 - Text"
       sodipodi:insensitive="true"><tspan
         sodipodi:role="line"
         id="tspan372-6"
         x="0"
         y="0"
         style="font-style:normal;font-variant:normal;font-weight:normal;font-stretch:normal;font-family:Roboto;-inkscape-font-specification:Roboto">Bring your business online.</tspan></text>
  </g>
  <g
     inkscape:groupmode="layer"
     id="layer2"
     inkscape:label="Non-Editable"
     sodipodi:insensitive="true">
    <path
       id="path819"
       style="font-weight:normal;font-size:4px;font-family:Roboto;-inkscape-font-specification:Roboto;text-align:center;text-anchor:middle;stroke-width:1.24266"
       d="m 30.289062,12.679688 v 3 h 0.332032 l 0.01758,-0.244141 c 0.145833,0.188802 0.352214,0.283203 0.61914,0.283203 0.25,0 0.449219,-0.09766 0.597657,-0.292969 0.148437,-0.196614 0.222656,-0.45638 0.222656,-0.779297 v -0.03125 c 0,-0.337239 -0.07357,-0.602864 -0.220703,-0.796875 -0.145833,-0.19401 -0.347005,-0.291015 -0.603516,-0.291015 -0.256509,0 -0.457682,0.09049 -0.603515,0.271484 v -1.11914 z m 21.44336,0 v 3 h 0.361328 v -3 z m -36.359375,0.117187 c -0.05782,0.0044 -0.102863,0.02523 -0.134766,0.06055 -0.03515,0.04036 -0.05273,0.08984 -0.05273,0.148437 0,0.0586 0.01758,0.107425 0.05273,0.146485 0.03646,0.03906 0.08984,0.05859 0.160157,0.05859 0.07031,0 0.123696,-0.01953 0.160156,-0.05859 0.03646,-0.03906 0.05469,-0.08789 0.05469,-0.146485 0,-0.05859 -0.01823,-0.10807 -0.05469,-0.148437 -0.03646,-0.04037 -0.08984,-0.06055 -0.160156,-0.06055 -0.0088,0 -0.01713,-6.31e-4 -0.02539,0 z m 21.617187,0 c -0.05782,0.0044 -0.102863,0.02523 -0.134765,0.06055 -0.03515,0.04036 -0.05273,0.08984 -0.05273,0.148437 0,0.0586 0.01758,0.107425 0.05273,0.146485 0.03646,0.03906 0.08984,0.05859 0.160156,0.05859 0.07031,0 0.123696,-0.01953 0.160156,-0.05859 0.03646,-0.03906 0.05469,-0.08789 0.05469,-0.146485 0,-0.05859 -0.01823,-0.10807 -0.05469,-0.148437 -0.03646,-0.04037 -0.08984,-0.06055 -0.160156,-0.06055 -0.0088,0 -0.01713,-6.31e-4 -0.02539,0 z m 15.871094,0 c -0.05782,0.0044 -0.102863,0.02523 -0.134766,0.06055 -0.03515,0.04036 -0.05273,0.08984 -0.05273,0.148437 0,0.0586 0.01758,0.107425 0.05273,0.146485 0.03646,0.03906 0.08984,0.05859 0.160157,0.05859 0.07031,0 0.123696,-0.01953 0.160156,-0.05859 0.03646,-0.03906 0.05469,-0.08789 0.05469,-0.146485 0,-0.05859 -0.01823,-0.10807 -0.05469,-0.148437 -0.03646,-0.04037 -0.08984,-0.06055 -0.160156,-0.06055 -0.0088,0 -0.01713,-6.31e-4 -0.02539,0 z m -41.464844,0.03906 v 2.84375 h 0.986328 c 0.302084,0 0.535809,-0.07292 0.701172,-0.21875 0.165365,-0.145834 0.248047,-0.346355 0.248047,-0.601563 0,-0.166667 -0.04492,-0.309896 -0.134765,-0.429687 -0.08854,-0.121096 -0.209636,-0.203128 -0.363282,-0.246094 0.130209,-0.05599 0.233074,-0.134766 0.308594,-0.236328 0.07552,-0.102865 0.113281,-0.220704 0.113281,-0.353516 0,-0.25 -0.07813,-0.438802 -0.234375,-0.566406 -0.154947,-0.127604 -0.386718,-0.191406 -0.695312,-0.191406 z m 0.375,0.308593 h 0.554688 c 0.186198,0 0.32487,0.03581 0.416016,0.107422 0.09114,0.07031 0.136718,0.183594 0.136718,0.339844 0,0.140625 -0.04948,0.251953 -0.148437,0.333984 -0.09766,0.08203 -0.228517,0.123047 -0.392578,0.123047 h -0.566407 z m 2.878907,0.382813 c -0.198059,0.01106 -0.351807,0.106201 -0.462891,0.283203 l -0.0059,-0.244141 h -0.351563 v 2.113282 h 0.361328 v -1.5 c 0.08463,-0.201823 0.245443,-0.302735 0.482422,-0.302735 0.0638,0 0.123048,0.0046 0.177734,0.01367 v -0.335937 c -0.03646,-0.01823 -0.08984,-0.02734 -0.160156,-0.02734 -0.01359,0 -0.02781,-7.38e-4 -0.04101,0 z m 2.490234,0 c -0.260416,0 -0.471354,0.101562 -0.632813,0.304687 l -0.01172,-0.265625 h -0.341797 v 2.113282 h 0.361328 v -1.50586 c 0.04948,-0.101562 0.11849,-0.183594 0.207031,-0.246094 0.08854,-0.0625 0.191407,-0.09375 0.308594,-0.09375 0.144531,0 0.250651,0.03646 0.318359,0.109375 0.06898,0.07292 0.104136,0.185547 0.105469,0.337891 v 1.398438 h 0.361328 V 14.2832 c -0.0039,-0.503906 -0.229167,-0.755859 -0.675781,-0.755859 z m 1.921875,0 c -0.229797,0.01144 -0.415771,0.109863 -0.558594,0.292968 -0.152343,0.194011 -0.228515,0.45573 -0.228515,0.785157 0,0.343749 0.07617,0.615234 0.228515,0.814453 0.153646,0.199219 0.354167,0.298828 0.601563,0.298828 0.25,0 0.447265,-0.08333 0.591797,-0.25 v 0.181641 c 0,0.179687 -0.04948,0.31901 -0.148438,0.417968 -0.09766,0.09896 -0.234375,0.148438 -0.410156,0.148438 -0.223959,0 -0.413412,-0.0957 -0.56836,-0.287109 l -0.1875,0.216796 c 0.07682,0.113279 0.188152,0.202472 0.333985,0.267578 0.145833,0.06511 0.294922,0.09766 0.447265,0.09766 0.273438,0 0.490886,-0.07878 0.652344,-0.236328 0.162761,-0.157552 0.244141,-0.373048 0.244141,-0.646485 v -2.0625 h -0.330078 l -0.01758,0.234375 c -0.144532,-0.182292 -0.345704,-0.273437 -0.603516,-0.273437 -0.01571,0 -0.03156,-7.63e-4 -0.04687,0 z m 5.259766,0 c -0.186198,0 -0.352214,0.04492 -0.498047,0.134765 -0.144531,0.08984 -0.257813,0.217449 -0.339844,0.382813 -0.08073,0.165364 -0.121094,0.351562 -0.121094,0.558594 v 0.02539 c 0,0.328125 0.08854,0.591797 0.265625,0.791016 0.178385,0.199219 0.410807,0.298828 0.697266,0.298828 0.190104,0 0.358073,-0.04557 0.503906,-0.136719 0.147135,-0.09115 0.259765,-0.218099 0.337891,-0.380859 0.07943,-0.164062 0.11914,-0.348958 0.11914,-0.554688 v -0.02539 c 0,-0.330729 -0.08919,-0.595703 -0.267578,-0.794922 -0.177083,-0.199219 -0.409506,-0.298828 -0.697265,-0.298828 z m 4.443359,0 c -0.198059,0.01106 -0.351806,0.106201 -0.462891,0.283203 l -0.0059,-0.244141 h -0.351563 v 2.113282 H 28.3066 v -1.5 c 0.08464,-0.201823 0.245443,-0.302735 0.482421,-0.302735 0.0638,0 0.123048,0.0046 0.177735,0.01367 v -0.335937 c -0.03646,-0.01823 -0.08984,-0.02734 -0.160156,-0.02734 -0.01359,0 -0.02781,-7.38e-4 -0.04102,0 z m 6.695313,0 c -0.208893,0.007 -0.381593,0.06738 -0.519532,0.179687 -0.145833,0.119791 -0.21875,0.266276 -0.21875,0.439453 0,0.104167 0.02539,0.194011 0.07617,0.269532 0.05208,0.07552 0.131511,0.140626 0.238281,0.195312 0.108074,0.05469 0.253256,0.101565 0.435547,0.140625 0.183594,0.03906 0.311849,0.08594 0.384766,0.140625 0.07422,0.05339 0.111328,0.128907 0.111328,0.226563 0,0.09245 -0.04167,0.166669 -0.125,0.222656 -0.08203,0.05469 -0.191406,0.08203 -0.328125,0.08203 -0.148437,0 -0.268229,-0.03516 -0.359375,-0.105469 -0.08982,-0.07161 -0.137998,-0.167968 -0.144531,-0.289062 h -0.361328 c 0,0.125 0.03646,0.241536 0.109375,0.349609 0.07422,0.106773 0.176432,0.190107 0.30664,0.25 0.130209,0.05989 0.279949,0.08984 0.449219,0.08984 0.240885,0 0.436849,-0.05664 0.587891,-0.169922 0.151041,-0.114583 0.226562,-0.266276 0.226562,-0.455078 0,-0.113281 -0.02734,-0.208984 -0.08203,-0.287109 C 36.194662,14.727211 36.111979,14.659502 36,14.603516 c -0.111979,-0.05599 -0.258464,-0.104165 -0.439453,-0.144532 -0.179687,-0.04036 -0.304036,-0.08268 -0.373047,-0.126953 -0.06901,-0.04427 -0.103516,-0.110025 -0.103516,-0.197265 0,-0.09245 0.03711,-0.167316 0.111328,-0.22461 0.07422,-0.05729 0.177084,-0.08594 0.308594,-0.08594 0.127604,0 0.233073,0.03581 0.316406,0.107422 0.08464,0.07161 0.126954,0.1569 0.126954,0.255859 h 0.363281 c 0,-0.192708 -0.07487,-0.350911 -0.224609,-0.474609 -0.148438,-0.123698 -0.342449,-0.185547 -0.582032,-0.185547 -0.01424,0 -0.02904,-4.68e-4 -0.04297,0 z m 3.296874,0 c -0.260416,0 -0.471354,0.101562 -0.632812,0.304687 l -0.01172,-0.265625 h -0.341797 v 2.113282 h 0.361328 v -1.50586 c 0.04948,-0.101562 0.11849,-0.183594 0.207032,-0.246094 0.08854,-0.0625 0.191406,-0.09375 0.308594,-0.09375 0.144531,0 0.25065,0.03646 0.318359,0.109375 0.06898,0.07292 0.104135,0.185547 0.105469,0.337891 v 1.398438 h 0.361328 V 14.2832 c -0.0039,-0.503906 -0.229167,-0.755859 -0.675781,-0.755859 z m 2.052735,0 c -0.167969,0 -0.324219,0.04687 -0.46875,0.140625 -0.143229,0.09245 -0.255208,0.221354 -0.335938,0.386719 -0.07943,0.164062 -0.11914,0.350911 -0.11914,0.560546 v 0.06641 c 0,0.315103 0.08984,0.567057 0.269531,0.755859 0.179687,0.1875 0.41276,0.28125 0.699219,0.28125 0.354166,0 0.619792,-0.136067 0.796875,-0.408203 l -0.220703,-0.171875 c -0.06641,0.08593 -0.143881,0.154945 -0.232422,0.207031 -0.08854,0.05209 -0.196615,0.07813 -0.324219,0.07813 -0.179687,0 -0.328125,-0.0638 -0.445312,-0.191406 -0.115894,-0.128906 -0.176441,-0.297526 -0.181641,-0.50586 h 1.431641 v -0.15039 c 0,-0.337239 -0.07617,-0.596355 -0.228516,-0.777344 -0.152344,-0.18099 -0.365886,-0.271484 -0.640625,-0.271484 z m 2.009765,0 c -0.208892,0.007 -0.381592,0.06738 -0.519531,0.179687 -0.145833,0.119791 -0.21875,0.266276 -0.21875,0.439453 0,0.104167 0.02539,0.194011 0.07617,0.269532 0.05208,0.07552 0.131511,0.140626 0.238281,0.195312 0.108074,0.05469 0.253256,0.101565 0.435547,0.140625 0.183594,0.03906 0.311849,0.08594 0.384766,0.140625 0.07422,0.05339 0.111328,0.128907 0.111328,0.226563 0,0.09245 -0.04167,0.166669 -0.125,0.222656 -0.08203,0.05469 -0.191406,0.08203 -0.328125,0.08203 -0.148437,0 -0.268229,-0.03516 -0.359375,-0.105469 -0.08982,-0.07161 -0.137998,-0.167968 -0.144531,-0.289062 h -0.361328 c 0,0.125 0.03646,0.241536 0.109375,0.349609 0.07422,0.106773 0.176432,0.190107 0.30664,0.25 0.130209,0.05989 0.279949,0.08984 0.449219,0.08984 0.240885,0 0.436849,-0.05664 0.587891,-0.169922 0.151041,-0.114583 0.226562,-0.266276 0.226562,-0.455078 0,-0.113281 -0.02734,-0.208984 -0.08203,-0.287109 -0.05338,-0.07943 -0.136068,-0.147139 -0.248047,-0.203125 -0.111979,-0.05599 -0.258464,-0.104165 -0.439453,-0.144532 -0.179687,-0.04036 -0.304036,-0.08268 -0.373047,-0.126953 -0.06901,-0.04427 -0.103516,-0.110025 -0.103516,-0.197265 0,-0.09245 0.03711,-0.167316 0.111329,-0.22461 0.07422,-0.05729 0.177083,-0.08594 0.308593,-0.08594 0.127604,0 0.233073,0.03581 0.316407,0.107422 0.08463,0.07161 0.126953,0.1569 0.126953,0.255859 h 0.363281 c 0,-0.192708 -0.07487,-0.350911 -0.22461,-0.474609 -0.148437,-0.123698 -0.342448,-0.185547 -0.582031,-0.185547 -0.01424,0 -0.02904,-4.68e-4 -0.04297,0 z m 2.0625,0 c -0.208892,0.007 -0.381592,0.06738 -0.519531,0.179687 -0.145833,0.119791 -0.21875,0.266276 -0.21875,0.439453 0,0.104167 0.02539,0.194011 0.07617,0.269532 0.05208,0.07552 0.131511,0.140626 0.238281,0.195312 0.108074,0.05469 0.253256,0.101565 0.435547,0.140625 0.183594,0.03906 0.311849,0.08594 0.384766,0.140625 0.07422,0.05339 0.111328,0.128907 0.111328,0.226563 0,0.09245 -0.04167,0.166669 -0.125,0.222656 -0.08203,0.05469 -0.191406,0.08203 -0.328125,0.08203 -0.148437,0 -0.268229,-0.03516 -0.359375,-0.105469 -0.08982,-0.07161 -0.137998,-0.167968 -0.144531,-0.289062 h -0.361328 c 0,0.125 0.03646,0.241536 0.109375,0.349609 0.07422,0.106773 0.176432,0.190107 0.30664,0.25 0.130209,0.05989 0.279949,0.08984 0.449219,0.08984 0.240885,0 0.436849,-0.05664 0.587891,-0.169922 0.151041,-0.114583 0.226562,-0.266276 0.226562,-0.455078 0,-0.113281 -0.02734,-0.208984 -0.08203,-0.287109 -0.05338,-0.07943 -0.136068,-0.147139 -0.248047,-0.203125 -0.111979,-0.05599 -0.258464,-0.104165 -0.439453,-0.144532 -0.179687,-0.04036 -0.304036,-0.08268 -0.373047,-0.126953 -0.06901,-0.04427 -0.103516,-0.110025 -0.103516,-0.197265 0,-0.09245 0.03711,-0.167316 0.111329,-0.22461 0.07422,-0.05729 0.177083,-0.08594 0.308593,-0.08594 0.127604,0 0.233073,0.03581 0.316407,0.107422 0.08463,0.07161 0.126953,0.1569 0.126953,0.255859 h 0.363281 c 0,-0.192708 -0.07487,-0.350911 -0.22461,-0.474609 -0.148437,-0.123698 -0.342448,-0.185547 -0.582031,-0.185547 -0.01424,0 -0.02904,-4.68e-4 -0.04297,0 z m 3.19336,0 c -0.186198,0 -0.352214,0.04492 -0.498047,0.134765 -0.144531,0.08984 -0.257812,0.217449 -0.339844,0.382813 -0.08073,0.165364 -0.121093,0.351562 -0.121093,0.558594 v 0.02539 c 0,0.328125 0.08854,0.591797 0.265624,0.791016 0.178386,0.199219 0.410808,0.298828 0.697266,0.298828 0.190104,0 0.358073,-0.04557 0.503906,-0.136719 0.147136,-0.09115 0.259766,-0.218099 0.337891,-0.380859 0.07943,-0.164062 0.119141,-0.348958 0.119141,-0.554688 v -0.02539 c 0,-0.330729 -0.08919,-0.595703 -0.267578,-0.794922 -0.177084,-0.199219 -0.409506,-0.298828 -0.697266,-0.298828 z m 2.404297,0 c -0.260417,0 -0.471354,0.101562 -0.632813,0.304687 l -0.01172,-0.265625 h -0.341797 v 2.113282 h 0.361328 v -1.50586 c 0.04948,-0.101562 0.118489,-0.183594 0.207031,-0.246094 0.08854,-0.0625 0.191406,-0.09375 0.308594,-0.09375 0.144531,0 0.250651,0.03646 0.318359,0.109375 0.06898,0.07292 0.104136,0.185547 0.105469,0.337891 v 1.398438 h 0.361328 V 14.2832 c -0.0039,-0.503906 -0.229167,-0.755859 -0.675781,-0.755859 z m 4.148437,0 c -0.260416,0 -0.471354,0.101562 -0.632812,0.304687 l -0.01172,-0.265625 h -0.341797 v 2.113282 h 0.361328 v -1.50586 c 0.04948,-0.101562 0.11849,-0.183594 0.207032,-0.246094 0.08854,-0.0625 0.191406,-0.09375 0.308593,-0.09375 0.144531,0 0.250651,0.03646 0.31836,0.109375 0.06898,0.07292 0.104135,0.185547 0.105468,0.337891 v 1.398438 h 0.361329 V 14.2832 c -0.0039,-0.503906 -0.229168,-0.755859 -0.675781,-0.755859 z m 2.052735,0 c -0.16797,0 -0.32422,0.04687 -0.46875,0.140625 -0.14323,0.09245 -0.255209,0.221354 -0.335938,0.386719 -0.07943,0.164062 -0.119141,0.350911 -0.119141,0.560546 v 0.06641 c 0,0.315103 0.08984,0.567057 0.269532,0.755859 0.179687,0.1875 0.412761,0.28125 0.699218,0.28125 0.354167,0 0.619792,-0.136067 0.796876,-0.408203 l -0.220704,-0.171875 c -0.06641,0.08593 -0.14388,0.154945 -0.232422,0.207031 -0.08854,0.05209 -0.196614,0.07813 -0.324218,0.07813 -0.179688,0 -0.328126,-0.0638 -0.445313,-0.191406 -0.115893,-0.128906 -0.17644,-0.297526 -0.18164,-0.50586 h 1.43164 v -0.15039 c 0,-0.337239 -0.07617,-0.596355 -0.228515,-0.777344 -0.152344,-0.18099 -0.365886,-0.271484 -0.640625,-0.271484 z m -41.466797,0.03906 v 2.113282 h 0.361328 v -2.113282 z m 6.15039,0 0.753907,2.089844 -0.08008,0.214844 c -0.04427,0.13151 -0.100911,0.222004 -0.169921,0.271484 -0.06771,0.04948 -0.162761,0.07422 -0.285157,0.07422 l -0.09766,-0.0078 v 0.292969 l 0.134766,0.02539 0.06836,0.0059 c 0.286459,0 0.495443,-0.175781 0.626953,-0.527344 l 0.84961,-2.439453 h -0.386719 l -0.492188,1.583985 -0.527343,-1.583985 z m 4.367188,0 v 1.375 c 0.0013,0.25651 0.06055,0.450521 0.177734,0.582032 0.11849,0.130208 0.290365,0.195312 0.515625,0.195312 0.272135,0 0.478516,-0.08268 0.619141,-0.248047 l 0.0078,0.208985 h 0.34375 v -2.113282 h -0.361328 v 1.53711 c -0.09115,0.205729 -0.27474,0.308593 -0.550781,0.308593 -0.260416,0 -0.390625,-0.160156 -0.390625,-0.480468 v -1.365235 z m 6.792969,0 v 1.375 c 0.0013,0.25651 0.06055,0.450521 0.177734,0.582032 0.118489,0.130208 0.290365,0.195312 0.515625,0.195312 0.272135,0 0.478515,-0.08268 0.619141,-0.248047 l 0.0078,0.208985 h 0.34375 v -2.113282 h -0.361328 v 1.53711 c -0.09115,0.205729 -0.27474,0.308593 -0.550781,0.308593 -0.260417,0 -0.390625,-0.160156 -0.390625,-0.480468 v -1.365235 z m 4.30664,0 v 2.113282 h 0.361328 v -2.113282 z m 15.871094,0 v 2.113282 h 0.361328 v -2.113282 z m -28.414063,0.257813 c 0.01088,-5.55e-4 0.02205,0 0.0332,0 0.182291,0 0.328124,0.07226 0.4375,0.216797 0.110676,0.143229 0.166015,0.330729 0.166015,0.5625 0,0.259114 -0.05404,0.460937 -0.162109,0.605468 -0.108073,0.14323 -0.253907,0.214844 -0.4375,0.214844 -0.182292,0 -0.328126,-0.07096 -0.4375,-0.21289 -0.108073,-0.141928 -0.16211,-0.330079 -0.16211,-0.564454 0,-0.264322 0.05469,-0.467447 0.164063,-0.609375 0.102539,-0.133056 0.235244,-0.204574 0.398437,-0.21289 z m 16.521485,0 c 0.151041,0 0.270833,0.05078 0.359375,0.152343 0.08854,0.100261 0.138017,0.242189 0.148437,0.425782 v 0.02734 h -1.058593 c 0.02344,-0.191406 0.08463,-0.339844 0.183593,-0.445313 0.09896,-0.106771 0.221355,-0.160156 0.367188,-0.160156 z m 7.232422,0 c 0.01088,-5.55e-4 0.02205,0 0.0332,0 0.182291,0 0.328125,0.07226 0.4375,0.216797 0.110676,0.143229 0.166016,0.330729 0.166016,0.5625 -10e-7,0.259114 -0.05404,0.460937 -0.16211,0.605468 -0.108072,0.14323 -0.253906,0.214844 -0.4375,0.214844 -0.182291,0 -0.328125,-0.07096 -0.4375,-0.21289 -0.108072,-0.141928 -0.162109,-0.330079 -0.162109,-0.564454 0,-0.264322 0.05469,-0.467447 0.164062,-0.609375 0.10254,-0.133056 0.235245,-0.204574 0.398438,-0.21289 z m 8.638672,0 c 0.151041,0 0.270833,0.05078 0.359375,0.152343 0.08854,0.100261 0.138017,0.242189 0.148437,0.425782 v 0.02734 h -1.058594 c 0.02344,-0.191406 0.08464,-0.339844 0.183594,-0.445313 0.09896,-0.106771 0.221354,-0.160156 0.367188,-0.160156 z m -37.482422,0.0098 c 0.221354,0 0.387369,0.100912 0.498047,0.302735 v 0.964843 c -0.106772,0.207032 -0.274089,0.310547 -0.501954,0.310547 -0.17578,0 -0.312499,-0.06771 -0.410156,-0.203125 -0.09766,-0.136718 -0.146484,-0.324219 -0.146484,-0.5625 0,-0.268229 0.04948,-0.470703 0.148437,-0.607422 0.09896,-0.136718 0.236329,-0.205078 0.41211,-0.205078 z m 11.964843,0 c 0.178386,0 0.315105,0.06706 0.410157,0.201172 0.09505,0.134115 0.142578,0.32422 0.142578,0.570313 0,0.269531 -0.04818,0.471354 -0.144531,0.605469 -0.09635,0.134114 -0.231121,0.201171 -0.404297,0.201171 -0.234375,0 -0.406902,-0.110677 -0.517578,-0.332031 v -0.914062 c 0.104166,-0.221354 0.275391,-0.332032 0.513671,-0.332032 z m -19.392578,0.515625 h 0.625 c 0.372396,0 0.558594,0.171225 0.558594,0.513672 0,0.158854 -0.05078,0.283854 -0.152344,0.375 -0.10026,0.08984 -0.23763,0.134766 -0.412109,0.134766 h -0.619141 z m 46.400391,0.921875 c -0.06095,0.0046 -0.107585,0.02604 -0.140625,0.0625 -0.03646,0.04167 -0.05469,0.09375 -0.05469,0.15625 10e-7,0.05989 0.01823,0.110024 0.05469,0.150391 0.03776,0.04037 0.09375,0.06055 0.167969,0.06055 0.07422,0 0.130209,-0.02018 0.167969,-0.06055 0.03906,-0.04037 0.05859,-0.0905 0.05859,-0.150391 0,-0.0625 -0.01953,-0.114583 -0.05859,-0.15625 -0.03776,-0.04167 -0.09375,-0.0625 -0.167969,-0.0625 -0.0093,0 -0.01864,-6.51e-4 -0.02734,0 z"
       inkscape:label="H2 - Vector"
       sodipodi:insensitive="true" />
    <path
       id="path6721"
       style="font-weight:500;font-size:5.68346px;font-family:Roboto;-inkscape-font-specification:'Roboto Medium';letter-spacing:0px;fill:#000000;fill-opacity:1;stroke-width:0.00139087"
       d="m 17.490235,5.1230466 v 4.6250007 h 0.732421 v -2.328126 c 0.144523,-0.260943 0.363189,-0.390624 0.656251,-0.390624 0.188681,0 0.331384,0.046285 0.427733,0.1406247 0.09836,0.092331 0.146485,0.2517479 0.146485,0.4765626 v 2.1015627 h 0.732421 V 7.619141 c -0.01,-0.7928711 -0.362125,-1.1894535 -1.05664,-1.1894535 -0.36532,0 -0.667383,0.1390129 -0.90625,0.4160157 V 5.1230466 Z m 42.9375,0 v 4.6250007 h 0.732421 V 5.1230466 Z M 3.8515626,5.3632811 V 9.7480473 H 4.6132813 V 8.0585939 H 5.4609375 L 6.3398437,9.7480473 H 7.15625 V 9.7089832 L 6.171875,7.8808584 C 6.4247914,7.7744789 6.6212107,7.6224931 6.7617187,7.4257798 6.9042343,7.2270609 6.9765624,6.9825131 6.9765624,6.6894517 6.9765624,6.2598956 6.839448,5.9318977 6.5644531,5.7050775 6.2894582,5.4782561 5.8984096,5.36328 5.3925781,5.36328 Z m 0.7617187,0.6152342 h 0.8027343 c 0.2649596,0.00404 0.4632237,0.070753 0.5957031,0.1992197 0.1344869,0.1284653 0.203125,0.3100704 0.203125,0.5449212 0,0.2248147 -0.072275,0.4027311 -0.2167968,0.5332032 C 5.8535241,7.3843235 5.651462,7.4472662 5.3945312,7.4472662 H 4.6132813 Z m 4.3652345,0.4511722 c -0.2790119,0 -0.5329451,0.072323 -0.7597653,0.2148441 C 7.9919291,6.7870477 7.8159104,6.9852574 7.6894531,7.2421869 7.5650031,7.4971098 7.5039063,7.788105 7.5039063,8.1132813 v 0.089845 c 0,0.48576 0.1426491,0.8749079 0.4296874,1.1679682 0.2890465,0.2910547 0.6652274,0.4375009 1.1289063,0.4375009 0.2709802,0 0.5156374,-0.053767 0.7324216,-0.1601567 C 10.013714,9.540049 10.187887,9.3880655 10.31836,9.1933601 L 9.9238283,8.8183604 C 9.7130655,9.0893419 9.4406828,9.2246101 9.1054693,9.2246101 8.8666051,9.2246101 8.6663874,9.1468032 8.5078127,8.9902352 8.3512436,8.8336685 8.2623122,8.6205373 8.2402345,8.3515638 H 10.369141 V 8.0566419 c 0,-0.5178749 -0.120402,-0.9181472 -0.363282,-1.2011714 C 9.7649883,6.5724451 9.4221214,6.4296887 8.9785158,6.4296875 Z m 3.2656242,0 c -0.250908,0 -0.476899,0.044488 -0.68164,0.1328119 -0.202734,0.088322 -0.363992,0.2106213 -0.482422,0.367188 -0.118429,0.1545601 -0.177734,0.3213532 -0.177734,0.4999999 h 0.732422 c 0,-0.1284629 0.05182,-0.234106 0.158203,-0.3164059 0.10638,-0.084302 0.243551,-0.1269534 0.410156,-0.1269534 0.192694,0 0.335344,0.051923 0.429687,0.1542971 0.09434,0.1003604 0.142578,0.235687 0.142578,0.4042965 v 0.2128909 h -0.449218 c -0.479736,0 -0.848483,0.092617 -1.107422,0.2792974 -0.25693,0.1846681 -0.386719,0.4515707 -0.386719,0.7988282 0,0.2749949 0.103798,0.5047295 0.310548,0.6914055 0.206748,0.1866761 0.473596,0.2812506 0.80078,0.2812506 0.337221,0 0.622627,-0.1223547 0.85547,-0.3652348 0.02409,0.1405058 0.05186,0.242459 0.08398,0.3046879 h 0.748046 V 9.6972664 C 13.548552,9.5226343 13.505856,9.2891551 13.505856,8.9960948 V 7.5253919 C 13.49979,7.1781357 13.385022,6.9094417 13.158199,6.718751 12.931379,6.5260523 12.625517,6.4296887 12.244137,6.4296887 Z m 3.373047,0 c -0.457657,0 -0.819026,0.1501338 -1.083984,0.449219 -0.26496,0.2970749 -0.396485,0.6936585 -0.396485,1.1894535 v 0.074215 c 0,0.5198828 0.133425,0.9275885 0.400392,1.2226567 0.266964,0.2950682 0.628334,0.4433594 1.083984,0.4433594 0.234851,0 0.453517,-0.051923 0.65625,-0.1542972 0.202734,-0.1023707 0.36204,-0.2413836 0.480468,-0.4160157 0.118453,-0.17664 0.181452,-0.365625 0.189454,-0.5683597 h -0.689454 c -0.008,0.1565668 -0.07097,0.2881464 -0.191406,0.3945317 -0.120434,0.1063794 -0.272416,0.1601556 -0.455078,0.1601556 -0.240871,0 -0.426222,-0.087145 -0.554687,-0.2597654 C 14.930182,8.7902079 14.867187,8.5271035 14.867187,8.1738246 V 8.0566324 c 0.002,-0.3492642 0.06685,-0.6106307 0.195313,-0.7812505 0.128464,-0.1726242 0.311972,-0.2578122 0.548828,-0.2578122 0.184669,0 0.33665,0.05925 0.455078,0.1796876 0.120464,0.1204361 0.183405,0.2742622 0.191406,0.460937 h 0.689454 C 16.935228,7.2908648 16.807389,6.9943359 16.5625,6.7695224 16.319622,6.5426997 16.00459,6.4296792 15.617187,6.4296792 Z m 16.81836,0 c -0.397439,0 -0.710624,0.1334233 -0.939454,0.4003901 L 31.476563,6.4902345 H 30.78711 v 3.2578128 h 0.730469 V 7.3867192 c 0.122443,-0.2388642 0.329986,-0.3574219 0.623047,-0.3574219 0.381377,0 0.577851,0.1908299 0.587891,0.574218 v 2.144532 h 0.730468 l -0.0019,-2.2343758 c 0.04216,-0.1445228 0.114373,-0.2612879 0.21875,-0.3496091 0.10638,-0.090321 0.243554,-0.1347651 0.410157,-0.1347651 0.208757,0 0.358893,0.048188 0.449219,0.1445311 0.09032,0.096352 0.134765,0.2483292 0.134765,0.4550774 v 2.1191415 h 0.732421 V 7.6074217 c -0.004,-0.3874028 -0.09484,-0.6801883 -0.271484,-0.8789059 -0.174632,-0.1987212 -0.44148,-0.2988283 -0.800781,-0.2988283 -0.429556,0 -0.763142,0.1667943 -1.000001,0.4999999 C 33.16955,6.5964818 32.871176,6.4296875 32.435601,6.4296875 Z m 5.091796,0 c -0.297073,0 -0.560232,0.07048 -0.789062,0.2089845 -0.228827,0.1364947 -0.406743,0.3329141 -0.533203,0.5898437 -0.126457,0.2549228 -0.189454,0.5421722 -0.189454,0.8613283 v 0.035162 c 0,0.5098457 0.137116,0.9194498 0.41211,1.226562 0.277004,0.3051042 0.645805,0.4570318 1.105469,0.4570318 0.301091,0 0.566094,-0.07048 0.794922,-0.2089845 0.230836,-0.1385026 0.408807,-0.3330236 0.53125,-0.5859385 0.124452,-0.2529149 0.185547,-0.5401643 0.185547,-0.8613271 l -0.0019,-0.171876 C 39.020941,7.512783 38.87075,7.1385006 38.595753,6.8554752 38.322766,6.5724498 37.966986,6.4296935 37.527393,6.4296935 Z m 3.585938,0 c -0.313134,0 -0.557737,0.1427552 -0.734374,0.4257818 l -0.01758,-0.3652348 h -0.699218 v 3.2578128 h 0.732422 V 7.5195311 c 0.116419,-0.2569283 0.34252,-0.3847656 0.677734,-0.3847656 0.102371,0 0.200526,0.00738 0.296875,0.023434 l 0.0039,-0.685546 C 41.3048,6.4445445 41.217653,6.4296875 41.113275,6.4296875 Z m 2.011719,0 c -0.279009,0 -0.532944,0.072323 -0.759766,0.2148441 -0.22682,0.1425161 -0.402838,0.3407258 -0.529297,0.5976553 -0.124449,0.2549229 -0.185546,0.5459181 -0.185546,0.8710944 v 0.089845 c 0,0.48576 0.142648,0.8749079 0.429687,1.1679682 0.289047,0.2910547 0.665228,0.4375009 1.128907,0.4375009 0.270981,0 0.515637,-0.053767 0.732421,-0.1601567 0.218793,-0.1083897 0.392965,-0.2603732 0.523437,-0.4550786 l -0.39453,-0.3749997 c -0.210762,0.2709815 -0.483146,0.4062497 -0.81836,0.4062497 -0.238865,0 -0.439082,-0.077807 -0.597656,-0.2343749 -0.156569,-0.1565667 -0.2455,-0.3696979 -0.267578,-0.6386714 h 2.128906 V 8.0566419 c 0,-0.5178749 -0.120401,-0.9181472 -0.363281,-1.2011714 C 43.911473,6.5724451 43.568606,6.4296887 43.125,6.4296887 Z m 5.074219,0 c -0.369336,0 -0.662175,0.1316331 -0.876953,0.3925785 L 47.291017,6.4902345 H 46.617188 V 11 h 0.732423 V 9.4550787 c 0.214777,0.2348495 0.500128,0.3535155 0.857422,0.3535155 0.385396,0 0.693046,-0.1501361 0.921874,-0.449219 0.228828,-0.3010919 0.343751,-0.703208 0.343751,-1.207031 v -0.044928 c 0,-0.5259042 -0.11498,-0.9373546 -0.341798,-1.2324215 -0.224812,-0.2970761 -0.5342,-0.4453126 -0.93164,-0.4453126 z m 3.242187,0 c -0.279011,0 -0.532944,0.072323 -0.759765,0.2148441 -0.22682,0.1425161 -0.402838,0.3407258 -0.529297,0.5976553 -0.12445,0.2549229 -0.1875,0.5459181 -0.1875,0.8710944 v 0.089845 c 0,0.48576 0.144601,0.8749079 0.431641,1.1679682 0.289046,0.2910547 0.665226,0.4375009 1.128905,0.4375009 0.270983,0 0.515639,-0.053767 0.732423,-0.1601567 C 52.476604,9.540049 52.650778,9.3880655 52.78125,9.1933601 L 52.386719,8.8183604 c -0.210764,0.2709815 -0.483147,0.4062497 -0.818359,0.4062497 -0.238866,0 -0.439082,-0.077807 -0.597657,-0.2343749 -0.15656,-0.1565667 -0.245492,-0.3696979 -0.267578,-0.6386714 h 2.128906 V 8.0566419 c 0,-0.5178749 -0.122353,-0.9181472 -0.365235,-1.2011714 -0.240871,-0.2830254 -0.581784,-0.4257818 -1.02539,-0.425783 z m 3.332031,0 c -0.297075,0 -0.560234,0.07048 -0.789062,0.2089845 -0.228828,0.1364947 -0.404793,0.3329141 -0.53125,0.5898437 -0.126457,0.2549228 -0.191406,0.5421722 -0.191406,0.8613283 v 0.035162 c 0,0.5098457 0.139048,0.9194498 0.414063,1.226562 0.277001,0.3051042 0.64385,0.4570318 1.103515,0.4570318 0.301089,0 0.566092,-0.07048 0.794921,-0.2089845 0.230837,-0.1385026 0.408808,-0.3330236 0.53125,-0.5859385 0.124451,-0.2529149 0.185548,-0.5401643 0.185548,-0.8613271 l -0.0019,-0.171876 C 56.267035,7.512783 56.118796,7.1385006 55.8438,6.8554752 55.570813,6.5724498 55.21308,6.4296935 54.773487,6.4296935 Z m 3.716797,0 c -0.369338,0 -0.662176,0.1316331 -0.876953,0.3925785 l -0.0293,-0.3320315 H 56.908202 V 11 h 0.732422 V 9.4550787 c 0.214778,0.2348495 0.500128,0.3535155 0.857421,0.3535155 0.385395,0 0.693048,-0.1501361 0.921876,-0.449219 0.228829,-0.3010919 0.343749,-0.703208 0.343749,-1.207031 v -0.044928 c 0,-0.5259042 -0.113017,-0.9373546 -0.339843,-1.2324215 C 59.199014,6.5779181 58.887671,6.4296816 58.490233,6.4296816 Z m 4.816406,0 c -0.279011,0 -0.530992,0.072323 -0.757812,0.2148441 -0.226821,0.1425161 -0.404793,0.3407258 -0.53125,0.5976553 -0.124451,0.2549229 -0.185547,0.5459181 -0.185547,0.8710944 v 0.089845 c 0,0.48576 0.142649,0.8749079 0.429688,1.1679682 0.289047,0.2910547 0.665228,0.4375009 1.128907,0.4375009 0.27098,0 0.515637,-0.053767 0.732421,-0.1601567 0.218792,-0.1083897 0.392964,-0.2603732 0.523437,-0.4550786 L 64.251953,8.8183604 c -0.210762,0.2709815 -0.483145,0.4062497 -0.818359,0.4062497 -0.238865,0 -0.437129,-0.077807 -0.595704,-0.2343749 C 62.681322,8.8336685 62.590437,8.6205373 62.568359,8.3515638 h 2.128906 V 8.0566419 c 0,-0.5178749 -0.120401,-0.9181472 -0.36328,-1.2011714 C 64.093113,6.5724451 63.750246,6.4296887 63.30664,6.4296875 Z M 8.9746094,7.017578 c 0.2027347,0 0.362148,0.062997 0.4765626,0.1894536 0.1144207,0.1244508 0.179257,0.3098029 0.1953121,0.5546873 v 0.052732 H 8.2519526 C 8.2860801,7.5635425 8.3658379,7.3690227 8.4882807,7.2285133 8.6127314,7.0880052 8.7738826,7.0175756 8.9746094,7.0175756 Z m 28.5097656,0 c 0.01455,-7.446e-4 0.02804,0 0.04297,0 0.24288,0 0.435663,0.096364 0.576173,0.2890623 0.142514,0.1926974 0.21289,0.4540116 0.21289,0.7832037 0,0.3713442 -0.06853,0.6530064 -0.207031,0.8457027 -0.136493,0.1926975 -0.329279,0.2890623 -0.576172,0.2890623 -0.246894,0 -0.439622,-0.09452 -0.578125,-0.2832027 -0.138501,-0.1906919 -0.207031,-0.4538498 -0.207031,-0.7890621 0,-0.3773668 0.07043,-0.6609275 0.210938,-0.8496103 0.131727,-0.1787717 0.307218,-0.2739826 0.52539,-0.2851559 z m 5.636719,0 c 0.202733,0 0.362149,0.062997 0.476563,0.1894536 0.11442,0.1244508 0.179257,0.3098029 0.195312,0.5546873 v 0.052732 h -1.394532 c 0.03413,-0.2509081 0.113885,-0.4454279 0.236328,-0.5859373 0.124451,-0.1405081 0.285601,-0.2109377 0.486329,-0.2109377 z m 8.316406,0 c 0.202734,0 0.36215,0.062997 0.476562,0.1894536 0.114421,0.1244508 0.179257,0.3098029 0.195314,0.5546873 v 0.052732 H 50.714844 C 50.748972,7.5635425 50.828729,7.3690227 50.951172,7.2285133 51.075623,7.0880052 51.236773,7.0175756 51.4375,7.0175756 Z m 3.292969,0 c 0.01455,-7.446e-4 0.02804,0 0.04297,0 0.24288,0 0.435663,0.096364 0.576172,0.2890623 0.142515,0.1926974 0.212891,0.4540116 0.212891,0.7832037 0,0.3713442 -0.06853,0.6530064 -0.207031,0.8457027 -0.136495,0.1926975 -0.329279,0.2890623 -0.576173,0.2890623 -0.246893,0 -0.439623,-0.09452 -0.578124,-0.2832027 -0.138502,-0.1906919 -0.207031,-0.4538498 -0.207031,-0.7890621 0,-0.3773668 0.07043,-0.6609275 0.210937,-0.8496103 0.131726,-0.1787717 0.307218,-0.2739826 0.525391,-0.2851559 z m 8.574218,0 c 0.202736,0 0.360197,0.062997 0.474609,0.1894536 0.114421,0.1244508 0.179259,0.3098029 0.195314,0.5546873 v 0.052732 H 62.582031 C 62.616161,7.5635428 62.693966,7.369023 62.816406,7.2285136 62.940856,7.0880055 63.10396,7.0175759 63.304687,7.0175759 Z M 47.994141,7.029354 c 0.240872,0 0.424268,0.09446 0.552734,0.2851559 0.130472,0.1906907 0.197265,0.4502134 0.197265,0.7753909 0,0.3813803 -0.06674,0.6648315 -0.199218,0.8535155 C 48.41445,9.1300915 48.232842,9.2246661 48,9.2246661 c -0.301089,0 -0.51791,-0.12599 -0.65039,-0.3789061 V 7.4004476 C 47.480082,7.1535541 47.695058,7.0293543 47.994141,7.029354 Z m 10.291015,0 c 0.240872,0 0.42427,0.09446 0.552735,0.2851559 0.130472,0.1906907 0.197265,0.4502134 0.197265,0.7753909 0,0.3813803 -0.06674,0.6648315 -0.199218,0.8535155 -0.130471,0.1866749 -0.312079,0.2812495 -0.544923,0.2812495 -0.30109,0 -0.51791,-0.12599 -0.65039,-0.3789061 V 7.4004476 C 57.771099,7.1535541 57.986074,7.0293543 58.285156,7.029354 Z M 20.75,7.5899012 v 0.5898437 h 9.466797 V 7.5899012 Z m -8.36914,0.6289054 h 0.39453 v 0.6132822 c -0.06423,0.1184293 -0.160597,0.2129491 -0.289062,0.2832026 -0.126459,0.070253 -0.261727,0.1054635 -0.40625,0.1054635 -0.156564,0 -0.282609,-0.040741 -0.376953,-0.1230459 -0.09233,-0.084302 -0.138672,-0.197383 -0.138672,-0.3378911 0,-0.172623 0.06859,-0.3060464 0.205078,-0.4003901 0.136493,-0.094341 0.340347,-0.140626 0.611329,-0.140626 z m 53.341797,0.7578133 c -0.134481,0 -0.24018,0.038909 -0.314454,0.1171922 -0.07427,0.076272 -0.111328,0.172642 -0.111328,0.2890623 0,0.116419 0.03896,0.2128349 0.115229,0.287109 0.07627,0.074274 0.180076,0.1113279 0.310548,0.1113279 0.136489,0 0.240179,-0.037054 0.314453,-0.1113279 0.07427,-0.076272 0.111328,-0.1726944 0.111328,-0.287109 0,-0.116431 -0.03705,-0.2127898 -0.111328,-0.2890623 -0.07427,-0.078283 -0.17796,-0.1171922 -0.314453,-0.1171922 z"
       inkscape:label="H1 - Vector"
       sodipodi:insensitive="true" />
  </g>
</svg>
