<?xml version="1.0" encoding="UTF-8" standalone="no"?>
<svg
   width="32"
   height="8"
   fill="currentColor"
   class="bi bi-terminal-fill"
   viewBox="0 0 32 8"
   version="1.1"
   id="svg4"
   sodipodi:docname="icon.svg"
   inkscape:version="1.2.2 (b0a8486, 2022-12-01)"
   xmlns:inkscape="http://www.inkscape.org/namespaces/inkscape"
   xmlns:sodipodi="http://sodipodi.sourceforge.net/DTD/sodipodi-0.dtd"
   xmlns:xlink="http://www.w3.org/1999/xlink"
   xmlns="http://www.w3.org/2000/svg"
   xmlns:svg="http://www.w3.org/2000/svg">
  <defs
     id="defs8">
    <linearGradient
       inkscape:collect="always"
       id="linearGradient978">
      <stop
         style="stop-color:#3097ff;stop-opacity:1;"
         offset="0"
         id="stop974" />
      <stop
         style="stop-color:#5900b1;stop-opacity:1;"
         offset="1"
         id="stop976" />
    </linearGradient>
    <linearGradient
       inkscape:collect="always"
       xlink:href="#linearGradient978"
       id="linearGradient2457"
       gradientUnits="userSpaceOnUse"
       gradientTransform="translate(-16.329356)"
       x1="16.992594"
       y1="4.214324"
       x2="47.549961"
       y2="4.214324" />
    <linearGradient
       inkscape:collect="always"
       xlink:href="#linearGradient978"
       id="linearGradient2459"
       gradientUnits="userSpaceOnUse"
       gradientTransform="translate(-16.329356)"
       x1="16.992594"
       y1="4.214324"
       x2="47.549961"
       y2="4.214324" />
    <linearGradient
       inkscape:collect="always"
       xlink:href="#linearGradient978"
       id="linearGradient2461"
       gradientUnits="userSpaceOnUse"
       gradientTransform="translate(-16.329356)"
       x1="16.992594"
       y1="4.214324"
       x2="47.549961"
       y2="4.214324" />
    <linearGradient
       inkscape:collect="always"
       xlink:href="#linearGradient978"
       id="linearGradient2463"
       gradientUnits="userSpaceOnUse"
       gradientTransform="translate(-16.329356)"
       x1="16.992594"
       y1="4.214324"
       x2="47.549961"
       y2="4.214324" />
    <linearGradient
       inkscape:collect="always"
       xlink:href="#linearGradient978"
       id="linearGradient2465"
       gradientUnits="userSpaceOnUse"
       gradientTransform="translate(-16.329356)"
       x1="16.992594"
       y1="4.214324"
       x2="47.549961"
       y2="4.214324" />
    <linearGradient
       inkscape:collect="always"
       xlink:href="#linearGradient978"
       id="linearGradient2467"
       gradientUnits="userSpaceOnUse"
       gradientTransform="translate(-16.329356)"
       x1="16.992594"
       y1="4.214324"
       x2="47.549961"
       y2="4.214324" />
  </defs>
  <sodipodi:namedview
     id="namedview6"
     pagecolor="#505050"
     bordercolor="#eeeeee"
     borderopacity="1"
     inkscape:showpageshadow="0"
     inkscape:pageopacity="0"
     inkscape:pagecheckerboard="0"
     inkscape:deskcolor="#505050"
     showgrid="false"
     inkscape:zoom="9.6612353"
     inkscape:cx="23.65122"
     inkscape:cy="-3.9332445"
     inkscape:window-width="1366"
     inkscape:window-height="656"
     inkscape:window-x="0"
     inkscape:window-y="25"
     inkscape:window-maximized="0"
     inkscape:current-layer="text717" />
  <g
     aria-label="ftw."
     id="text717"
     style="font-weight:bold;font-size:10.0333px;font-family:Roboto;-inkscape-font-specification:'Roboto Bold';letter-spacing:-0.11px;fill:#ffffff;stroke-width:0.0522568">
    <path
       d="M 0.66324008,2.646432 V 7.5149021 H 2.0004214 V 5.3207947 q 0,-0.3295869 0.065917,-0.61209 0.065917,-0.2825031 0.2165857,-0.4896721 0.1600851,-0.2165857 0.4143379,-0.3390037 0.2542528,-0.122418 0.6215068,-0.122418 0.122418,0 0.2542528,0.018833 0.1318348,0.00942 0.2260025,0.02825 V 2.5616811 Q 3.638939,2.5145971 3.5071042,2.5145971 q -0.2542528,0 -0.489672,0.075334 -0.2354189,0.075335 -0.4425878,0.216586 -0.207169,0.1318348 -0.367254,0.329587 Q 2.0475053,3.3244395 1.9533376,3.550442 H 1.934504 v -0.90401 z"
       style="font-size:9.41677px;font-family:'Helvetica Neue';-inkscape-font-specification:'Helvetica Neue Bold';text-align:center;letter-spacing:0px;text-anchor:middle;fill:url(#linearGradient2457);stroke-width:0.121778"
       id="path2444" />
    <path
       d="M 8.8934964,7.5149021 V 2.646432 H 7.5563151 v 2.5519447 q 0,0.7439248 -0.244836,1.0735118 -0.2448361,0.3201702 -0.7910087,0.3201702 -0.4802553,0 -0.6685907,-0.2919199 Q 5.6635443,5.9988021 5.6635443,5.3961289 V 2.646432 H 4.326363 v 2.9945329 q 0,0.4520049 0.075334,0.8286757 0.084751,0.3672541 0.2825031,0.6309236 0.1977522,0.2542528 0.5367559,0.3955044 0.3484205,0.1412515 0.8851764,0.1412515 0.4237546,0 0.8286758,-0.1883354 0.4049211,-0.1883354 0.6591739,-0.61209 h 0.02825 v 0.6780074 z"
       style="font-size:9.41677px;font-family:'Helvetica Neue';-inkscape-font-specification:'Helvetica Neue Bold';text-align:center;letter-spacing:0px;text-anchor:middle;fill:url(#linearGradient2459);stroke-width:0.121778"
       id="path2446" />
    <path
       d="m 13.479449,5.0853755 q 0,0.3013366 -0.06592,0.5838397 -0.06592,0.2825031 -0.207169,0.4990888 -0.141252,0.2165857 -0.357837,0.3484205 -0.207169,0.122418 -0.508506,0.122418 -0.29192,0 -0.508505,-0.122418 Q 11.614929,6.3848897 11.473677,6.168304 11.332426,5.9517183 11.266508,5.6692152 q -0.06592,-0.2825031 -0.06592,-0.5838397 0,-0.3107534 0.06592,-0.5932565 0.06592,-0.2825031 0.207169,-0.4990889 0.141252,-0.2165857 0.357838,-0.3390037 0.216585,-0.1318348 0.508505,-0.1318348 0.301337,0 0.508506,0.1318348 0.216585,0.122418 0.357837,0.3390037 0.141252,0.2165858 0.207169,0.4990889 0.06592,0.2825031 0.06592,0.5932565 z M 9.9104935,0.79132835 V 7.5149021 H 11.181757 V 6.8933953 h 0.01883 q 0.216586,0.4049211 0.64034,0.574423 0.423755,0.1695018 0.960511,0.1695018 0.367254,0 0.725091,-0.1506683 0.357837,-0.1506683 0.640341,-0.4614217 0.291919,-0.3107534 0.470838,-0.7910087 0.178919,-0.489672 0.178919,-1.1582627 0,-0.6685907 -0.178919,-1.1488459 Q 14.458793,3.4374407 14.166874,3.1266873 13.88437,2.8159339 13.526533,2.6652656 13.168696,2.5145973 12.801442,2.5145973 q -0.452005,0 -0.87576,0.1789186 -0.414338,0.1695018 -0.659174,0.5461726 h -0.01883 V 0.79132835 Z"
       style="font-size:9.41677px;font-family:'Helvetica Neue';-inkscape-font-specification:'Helvetica Neue Bold';text-align:center;letter-spacing:0px;text-anchor:middle;fill:url(#linearGradient2461);stroke-width:0.121778"
       id="path2448" />
    <path
       d="m 18.941158,4.5580363 h -2.175274 q 0.0094,-0.1412515 0.0565,-0.3201701 0.0565,-0.1789187 0.178919,-0.3390038 0.131834,-0.160085 0.339003,-0.2636695 0.216586,-0.1130013 0.536756,-0.1130013 0.489672,0 0.725091,0.2636696 0.244836,0.2636696 0.339004,0.7721751 z M 16.765884,5.4055456 H 20.27834 Q 20.316007,4.8405394 20.184172,4.3226171 20.052337,3.8046947 19.751,3.3997736 19.459081,2.9948525 18.997659,2.7594333 18.536237,2.5145973 17.91473,2.5145973 q -0.555589,0 -1.017011,0.1977521 -0.452005,0.1977522 -0.781592,0.5461727 -0.329587,0.3390037 -0.508505,0.8098422 -0.178919,0.4708385 -0.178919,1.0170112 0,0.5650062 0.169502,1.0358447 0.178918,0.4708385 0.499089,0.8098422 0.32017,0.3390037 0.781592,0.5273391 0.461421,0.1789186 1.035844,0.1789186 0.828676,0 1.412516,-0.3766708 0.583839,-0.3766708 0.866343,-1.2524304 h -1.177097 q -0.06592,0.2260025 -0.357837,0.4331714 -0.29192,0.1977522 -0.696841,0.1977522 -0.565006,0 -0.866343,-0.2919199 -0.301336,-0.2919198 -0.329587,-0.941677 z"
       style="font-size:9.41677px;font-family:'Helvetica Neue';-inkscape-font-specification:'Helvetica Neue Bold';text-align:center;letter-spacing:0px;text-anchor:middle;fill:url(#linearGradient2463);stroke-width:0.121778"
       id="path2450" />
    <path
       d="m 21.069343,2.646432 v 4.8684701 h 1.337182 V 4.9629574 q 0,-0.7439248 0.244836,-1.064095 0.244836,-0.3295869 0.791008,-0.3295869 0.480256,0 0.668591,0.3013366 0.188335,0.2919199 0.188335,0.8945932 v 2.7496968 h 1.337182 V 4.5203693 q 0,-0.452005 -0.08475,-0.819259 Q 25.476397,3.3244395 25.27864,3.0701867 25.080888,2.8065171 24.732468,2.6652656 24.393464,2.5145973 23.856708,2.5145973 q -0.423755,0 -0.828676,0.1977521 -0.404921,0.1883354 -0.659174,0.6120901 h -0.02825 V 2.646432 Z"
       style="font-size:9.41677px;font-family:'Helvetica Neue';-inkscape-font-specification:'Helvetica Neue Bold';text-align:center;letter-spacing:0px;text-anchor:middle;fill:url(#linearGradient2465);stroke-width:0.121778"
       id="path2452" />
    <path
       d="M 26.653473,0.79132835 V 7.5149021 h 1.337181 V 4.9629574 q 0,-0.7439248 0.244836,-1.064095 0.244836,-0.3295869 0.791009,-0.3295869 0.480255,0 0.66859,0.3013366 0.188336,0.2919199 0.188336,0.8945932 v 2.7496968 h 1.337181 V 4.5203693 q 0,-0.452005 -0.08475,-0.819259 Q 31.060526,3.3244395 30.86277,3.0701867 30.665018,2.8065171 30.316597,2.6652656 29.977593,2.5145973 29.440837,2.5145973 q -0.37667,0 -0.772175,0.1977521 -0.395504,0.1883354 -0.649757,0.6120901 h -0.02825 V 0.79132835 Z"
       style="font-size:9.41677px;font-family:'Helvetica Neue';-inkscape-font-specification:'Helvetica Neue Bold';text-align:center;letter-spacing:0px;text-anchor:middle;fill:url(#linearGradient2467);stroke-width:0.121778"
       id="path2454" />
  </g>
</svg>
