<?xml version="1.0" encoding="UTF-8" standalone="no"?>
<svg
   width="73"
   height="8"
   fill="currentColor"
   class="bi bi-terminal-fill"
   viewBox="0 0 73 8"
   version="1.1"
   id="svg4"
   sodipodi:docname="icon.svg"
   inkscape:version="1.2.2 (b0a8486, 2022-12-01)"
   xmlns:inkscape="http://www.inkscape.org/namespaces/inkscape"
   xmlns:sodipodi="http://sodipodi.sourceforge.net/DTD/sodipodi-0.dtd"
   xmlns:xlink="http://www.w3.org/1999/xlink"
   xmlns="http://www.w3.org/2000/svg"
   xmlns:svg="http://www.w3.org/2000/svg">
  <path
     d="M 0.5257493,0.56243916 V 7.4307194 H 2.0360014 V 4.4679318 H 4.8160196 V 7.4307194 H 6.3262717 V 0.56243916 H 4.8160196 V 3.1981657 H 2.0360014 V 0.56243916 Z"
     id="path993"
     style="font-weight:bold;font-size:9.61944px;font-family:'Helvetica Neue';-inkscape-font-specification:'Helvetica Neue Bold';text-align:center;letter-spacing:0px;text-anchor:middle;fill:url(#linearGradient1020);stroke-width:0.124397" />
  <path
     d="m 8.7215045,4.9489038 q 0,-0.2982026 0.057717,-0.5867858 Q 8.8369378,4.0735348 8.97161,3.8522877 9.1159016,3.6310405 9.3467682,3.4963684 9.5776347,3.3520768 9.9239346,3.3520768 q 0.3462994,0 0.5771664,0.1442916 0.240486,0.1346721 0.375158,0.3559193 0.144292,0.2212471 0.202008,0.5098303 0.05772,0.2885832 0.05772,0.5867858 0,0.2982027 -0.05772,0.5867859 -0.05772,0.2789637 -0.202008,0.5098303 -0.134672,0.2212471 -0.375158,0.3559193 -0.230867,0.1346721 -0.5771664,0.1346721 -0.3462999,0 -0.5771664,-0.1346721 Q 9.1159016,6.2667671 8.97161,6.04552 8.8369378,5.8146534 8.7792212,5.5356897 8.7215045,5.2471065 8.7215045,4.9489038 Z m -1.3659604,0 q 0,0.5964053 0.1827693,1.0773773 0.1827694,0.480972 0.5194498,0.8272719 0.3366804,0.3366804 0.8080329,0.5194497 0.4713526,0.1827694 1.0581385,0.1827694 0.5867854,0 1.0581384,-0.1827694 0.480972,-0.1827693 0.817652,-0.5194497 0.336681,-0.3462999 0.51945,-0.8272719 0.182769,-0.480972 0.182769,-1.0773773 0,-0.5964052 -0.182769,-1.0773773 Q 12.136406,3.3809351 11.799725,3.0442547 11.463045,2.6979549 10.982073,2.5151855 10.51072,2.3227967 9.9239346,2.3227967 q -0.5867859,0 -1.0581385,0.1923888 Q 8.3944436,2.6979549 8.0577632,3.0442547 7.7210828,3.3809351 7.5383134,3.8715265 7.3555441,4.3524986 7.3555441,4.9489038 Z"
     id="path995"
     style="font-weight:bold;font-size:9.61944px;font-family:'Helvetica Neue';-inkscape-font-specification:'Helvetica Neue Bold';text-align:center;letter-spacing:0px;text-anchor:middle;fill:url(#linearGradient1022);stroke-width:0.124397" />
  <path
     d="m 13.425392,2.4574689 v 4.9732505 h 1.365961 v -2.885832 q 0,-0.3655388 0.105814,-0.5867859 0.105814,-0.2308666 0.250105,-0.3462998 0.153911,-0.1250528 0.307822,-0.1635305 0.163531,-0.048097 0.259725,-0.048097 0.327061,0 0.490592,0.1154333 0.173149,0.1058138 0.240486,0.2885832 0.07696,0.1827693 0.08657,0.4040164 0.0096,0.2116277 0.0096,0.4328749 v 2.7896376 h 1.36596 v -2.770399 q 0,-0.2308665 0.02886,-0.4521137 0.03848,-0.2308665 0.134672,-0.4040164 0.105814,-0.1827694 0.278964,-0.2885832 0.182769,-0.1154333 0.471352,-0.1154333 0.288583,0 0.452114,0.096194 0.17315,0.096194 0.259725,0.2597249 0.08657,0.1635304 0.105814,0.3847776 0.01924,0.2212471 0.01924,0.4713525 v 2.818496 h 1.36596 V 4.1023931 q 0,-0.480972 -0.134672,-0.8176524 -0.13465,-0.3462998 -0.375136,-0.5579275 -0.240486,-0.2116277 -0.577167,-0.3078221 -0.33668,-0.096194 -0.731077,-0.096194 -0.51945,0 -0.904227,0.2501054 -0.375159,0.2501051 -0.596406,0.577166 -0.202008,-0.4617331 -0.596405,-0.6445024 -0.384778,-0.1827694 -0.85613,-0.1827694 -0.490592,0 -0.875369,0.2116277 -0.375158,0.2116277 -0.644503,0.5964053 h -0.01924 V 2.4574689 Z"
     id="path997"
     style="font-weight:bold;font-size:9.61944px;font-family:'Helvetica Neue';-inkscape-font-specification:'Helvetica Neue Bold';text-align:center;letter-spacing:0px;text-anchor:middle;fill:url(#linearGradient1024);stroke-width:0.124397" />
  <path
     d="m 25.449676,4.4102152 h -2.22209 q 0.0096,-0.1442916 0.05772,-0.327061 0.05772,-0.1827693 0.18277,-0.3462998 0.134672,-0.1635305 0.3463,-0.2693443 0.221247,-0.1154333 0.548308,-0.1154333 0.500211,0 0.740697,0.2693443 0.250105,0.2693443 0.346299,0.7887941 z m -2.22209,0.8657496 h 3.588051 Q 26.854115,4.6987984 26.719442,4.1697292 26.58477,3.64066 26.276948,3.2270241 25.978746,2.8133881 25.507393,2.5729021 25.03604,2.3227967 24.401157,2.3227967 q -0.567547,0 -1.038899,0.2020082 -0.461733,0.2020083 -0.798414,0.5579276 -0.33668,0.3462998 -0.519449,0.8272718 -0.18277,0.480972 -0.18277,1.0388995 0,0.5771664 0.17315,1.0581384 0.18277,0.480972 0.50983,0.8272719 0.327061,0.3462998 0.798414,0.5386886 0.471353,0.1827694 1.058138,0.1827694 0.846511,0 1.442916,-0.3847776 0.596406,-0.3847776 0.884989,-1.2793855 h -1.20243 q -0.06734,0.2308665 -0.365539,0.4424942 -0.298202,0.2020082 -0.711838,0.2020082 -0.577167,0 -0.884989,-0.2982026 -0.307822,-0.2982026 -0.33668,-0.961944 z"
     id="path999"
     style="font-weight:bold;font-size:9.61944px;font-family:'Helvetica Neue';-inkscape-font-specification:'Helvetica Neue Bold';text-align:center;letter-spacing:0px;text-anchor:middle;fill:url(#linearGradient1026);stroke-width:0.124397" />
  <path
     d="m 31.471438,5.1509121 h -1.462155 q -0.0096,0.634883 0.230867,1.0966161 0.240486,0.4617332 0.644502,0.7599358 0.413636,0.2982027 0.942705,0.4328748 0.538689,0.1442916 1.106236,0.1442916 0.702219,0 1.231288,-0.1635305 0.538689,-0.1635304 0.894608,-0.4521136 0.365539,-0.2982027 0.548308,-0.7022192 0.18277,-0.4040165 0.18277,-0.875369 0,-0.5771664 -0.250106,-0.9427051 Q 35.299975,4.0735348 34.963295,3.8522877 34.626614,3.6310405 34.280314,3.5348461 33.943634,3.4290323 33.751245,3.3905545 33.106743,3.2270241 32.702726,3.1212102 32.308329,3.0153964 32.077463,2.9095825 31.856216,2.8037687 31.77926,2.678716 31.7023,2.5536633 31.7023,2.351655 q 0,-0.2212471 0.09619,-0.3655387 0.09619,-0.1442916 0.240486,-0.240486 0.153911,-0.096194 0.33668,-0.1346722 0.18277,-0.038478 0.365539,-0.038478 0.278964,0 0.50983,0.048097 0.240486,0.048097 0.423256,0.1635304 0.182769,0.1154333 0.288583,0.3174416 0.115433,0.2020082 0.134672,0.5098303 H 35.5597 q 0,-0.5964053 -0.230867,-1.0100412 Q 35.107586,1.1780833 34.722809,0.908739 34.338031,0.63939468 33.83782,0.5239614 33.347229,0.39890868 32.80854,0.39890868 q -0.461733,0 -0.923466,0.12505272 -0.461733,0.12505272 -0.827272,0.3847776 -0.365539,0.2597249 -0.596405,0.6541219 -0.221247,0.3847776 -0.221247,0.9138468 0,0.4713526 0.17315,0.808033 0.182769,0.327061 0.471352,0.5483081 0.288583,0.2212471 0.654122,0.3655387 0.365539,0.1346722 0.750316,0.2308666 0.375158,0.1058138 0.740697,0.1923888 0.365539,0.086575 0.654122,0.2020082 0.288583,0.1154333 0.461733,0.2885832 0.18277,0.1731499 0.18277,0.4521137 0,0.2597249 -0.134673,0.4328748 -0.134672,0.1635305 -0.33668,0.2597249 -0.202008,0.096194 -0.432875,0.1346721 -0.230866,0.028858 -0.432875,0.028858 -0.298202,0 -0.577166,-0.067336 Q 32.135179,6.2763866 31.923552,6.132095 31.721543,5.9781839 31.596491,5.7376979 31.471438,5.4972119 31.471438,5.1509121 Z"
     id="path1001"
     style="font-weight:bold;font-size:9.61944px;font-family:'Helvetica Neue';-inkscape-font-specification:'Helvetica Neue Bold';text-align:center;letter-spacing:0px;text-anchor:middle;fill:url(#linearGradient1028);stroke-width:0.124397" />
  <path
     d="m 37.752916,4.9489038 q 0,-0.2982026 0.05772,-0.5867858 0.05772,-0.2885832 0.192389,-0.5098303 0.144292,-0.2212472 0.375158,-0.3559193 0.230867,-0.1442916 0.577167,-0.1442916 0.3463,0 0.577166,0.1442916 0.240486,0.1346721 0.375158,0.3559193 0.144292,0.2212471 0.202009,0.5098303 0.05772,0.2885832 0.05772,0.5867858 0,0.2982027 -0.05772,0.5867859 -0.05772,0.2789637 -0.202009,0.5098303 -0.134672,0.2212471 -0.375158,0.3559193 -0.230866,0.1346721 -0.577166,0.1346721 -0.3463,0 -0.577167,-0.1346721 Q 38.147313,6.2667671 38.003021,6.04552 37.868349,5.8146534 37.810632,5.5356897 37.752916,5.2471065 37.752916,4.9489038 Z m -1.365961,0 q 0,0.5964053 0.18277,1.0773773 0.182769,0.480972 0.519449,0.8272719 0.336681,0.3366804 0.808033,0.5194497 0.471353,0.1827694 1.058139,0.1827694 0.586786,0 1.058138,-0.1827694 0.480972,-0.1827693 0.817653,-0.5194497 0.33668,-0.3462999 0.519449,-0.8272719 0.18277,-0.480972 0.18277,-1.0773773 0,-0.5964052 -0.18277,-1.0773773 Q 41.167817,3.3809351 40.831137,3.0442547 40.494456,2.6979549 40.013484,2.5151855 39.542132,2.3227967 38.955346,2.3227967 q -0.586786,0 -1.058139,0.1923888 -0.471352,0.1827694 -0.808033,0.5290692 -0.33668,0.3366804 -0.519449,0.8272718 -0.18277,0.4809721 -0.18277,1.0773773 z"
     id="path1003"
     style="font-weight:bold;font-size:9.61944px;font-family:'Helvetica Neue';-inkscape-font-specification:'Helvetica Neue Bold';text-align:center;letter-spacing:0px;text-anchor:middle;fill:url(#linearGradient1030);stroke-width:0.124397" />
  <path
     d="M 42.456805,0.56243916 V 7.4307194 h 1.36596 V 0.56243916 Z"
     id="path1005"
     style="font-weight:bold;font-size:9.61944px;font-family:'Helvetica Neue';-inkscape-font-specification:'Helvetica Neue Bold';text-align:center;letter-spacing:0px;text-anchor:middle;fill:url(#linearGradient1032);stroke-width:0.124397" />
  <path
     d="M 49.565567,7.4307194 V 2.4574689 h -1.365961 v 2.6068682 q 0,0.7599358 -0.250105,1.0966162 -0.250106,0.3270609 -0.808033,0.3270609 -0.490592,0 -0.68298,-0.2982026 Q 46.266099,5.8819895 46.266099,5.2663454 V 2.4574689 h -1.365961 v 3.0589819 q 0,0.4617331 0.07696,0.8465107 0.08657,0.3751582 0.288583,0.6445025 0.202008,0.2597249 0.548308,0.4040165 0.355919,0.1442916 0.904227,0.1442916 0.432875,0 0.846511,-0.1923888 0.413636,-0.1923888 0.673361,-0.6252636 h 0.02886 v 0.6925997 z"
     id="path1007"
     style="font-weight:bold;font-size:9.61944px;font-family:'Helvetica Neue';-inkscape-font-specification:'Helvetica Neue Bold';text-align:center;letter-spacing:0px;text-anchor:middle;fill:url(#linearGradient1034);stroke-width:0.124397" />
  <path
     d="M 52.335949,2.4574689 V 0.96645564 H 50.969988 V 2.4574689 h -0.827271 v 0.9138468 h 0.827271 v 2.9339292 q 0,0.3751581 0.125053,0.6060247 0.125053,0.2308666 0.33668,0.3559193 0.221248,0.1250527 0.500211,0.1635305 0.288584,0.048097 0.606025,0.048097 0.202008,0 0.413636,-0.00962 0.211628,-0.00962 0.384778,-0.038478 V 6.372581 q -0.0962,0.019239 -0.202009,0.028858 -0.105813,0.00962 -0.221247,0.00962 -0.3463,0 -0.461733,-0.1154333 Q 52.335949,6.1801922 52.335949,5.8338923 V 3.3713157 h 1.000422 V 2.4574689 Z"
     id="path1009"
     style="font-weight:bold;font-size:9.61944px;font-family:'Helvetica Neue';-inkscape-font-specification:'Helvetica Neue Bold';text-align:center;letter-spacing:0px;text-anchor:middle;fill:url(#linearGradient1036);stroke-width:0.124397" />
  <path
     d="M 55.394924,1.6879136 V 0.56243916 H 54.028963 V 1.6879136 Z m -1.365961,0.7695553 v 4.9732505 h 1.365961 V 2.4574689 Z"
     id="path1011"
     style="font-weight:bold;font-size:9.61944px;font-family:'Helvetica Neue';-inkscape-font-specification:'Helvetica Neue Bold';text-align:center;letter-spacing:0px;text-anchor:middle;fill:url(#linearGradient1038);stroke-width:0.124397" />
  <path
     d="m 57.684347,4.9489038 q 0,-0.2982026 0.05772,-0.5867858 0.05772,-0.2885832 0.192389,-0.5098303 0.144292,-0.2212472 0.375158,-0.3559193 0.230867,-0.1442916 0.577167,-0.1442916 0.346299,0 0.577166,0.1442916 0.240486,0.1346721 0.375158,0.3559193 0.144292,0.2212471 0.202008,0.5098303 0.05772,0.2885832 0.05772,0.5867858 0,0.2982027 -0.05772,0.5867859 -0.05772,0.2789637 -0.202008,0.5098303 -0.134672,0.2212471 -0.375158,0.3559193 -0.230867,0.1346721 -0.577166,0.1346721 -0.3463,0 -0.577167,-0.1346721 Q 58.078744,6.2667671 57.934452,6.04552 57.79978,5.8146534 57.742063,5.5356897 57.684347,5.2471065 57.684347,4.9489038 Z m -1.365961,0 q 0,0.5964053 0.182769,1.0773773 0.18277,0.480972 0.51945,0.8272719 0.336681,0.3366804 0.808033,0.5194497 0.471353,0.1827694 1.058139,0.1827694 0.586785,0 1.058138,-0.1827694 0.480972,-0.1827693 0.817652,-0.5194497 0.336681,-0.3462999 0.51945,-0.8272719 0.182769,-0.480972 0.182769,-1.0773773 0,-0.5964052 -0.182769,-1.0773773 -0.182769,-0.4905914 -0.51945,-0.8272718 -0.33668,-0.3462998 -0.817652,-0.5290692 -0.471353,-0.1923888 -1.058138,-0.1923888 -0.586786,0 -1.058139,0.1923888 -0.471352,0.1827694 -0.808033,0.5290692 -0.33668,0.3366804 -0.51945,0.8272718 -0.182769,0.4809721 -0.182769,1.0773773 z"
     id="path1013"
     style="font-weight:bold;font-size:9.61944px;font-family:'Helvetica Neue';-inkscape-font-specification:'Helvetica Neue Bold';text-align:center;letter-spacing:0px;text-anchor:middle;fill:url(#linearGradient1040);stroke-width:0.124397" />
  <path
     d="m 62.349758,2.4574689 v 4.9732505 h 1.36596 V 4.8238511 q 0,-0.7599358 0.250105,-1.0869967 0.250106,-0.3366804 0.808033,-0.3366804 0.490592,0 0.682981,0.3078221 0.192389,0.2982026 0.192389,0.9138468 v 2.8088765 h 1.36596 v -3.058982 q 0,-0.4617331 -0.08657,-0.8368913 -0.07695,-0.3847776 -0.278964,-0.6445024 -0.202008,-0.2693444 -0.557927,-0.413636 -0.3463,-0.153911 -0.894608,-0.153911 -0.432875,0 -0.846511,0.2020082 -0.413636,0.1923888 -0.673361,0.6252636 h -0.02886 V 2.4574689 Z"
     id="path1015"
     style="font-weight:bold;font-size:9.61944px;font-family:'Helvetica Neue';-inkscape-font-specification:'Helvetica Neue Bold';text-align:center;letter-spacing:0px;text-anchor:middle;fill:url(#linearGradient1042);stroke-width:0.124397" />
  <path
     d="m 69.112211,5.8146534 h -1.298624 q 0.01924,0.5002109 0.221247,0.8368913 0.211628,0.327061 0.529069,0.5290692 0.327061,0.2020083 0.740697,0.2885832 0.413636,0.086575 0.846511,0.086575 0.423255,0 0.827272,-0.086575 0.413635,-0.076955 0.731077,-0.2789637 0.317442,-0.2020083 0.50983,-0.5290692 0.202009,-0.3366804 0.202009,-0.8272719 0,-0.3462998 -0.134673,-0.5771664 Q 72.151954,5.0162399 71.930707,4.8623289 71.70946,4.6987984 71.420877,4.602604 71.141913,4.5064096 70.84371,4.4390735 70.555127,4.3717374 70.276163,4.3140208 69.9972,4.2563041 69.775953,4.1889681 69.564325,4.1120125 69.429653,3.9965793 69.294981,3.881146 69.294981,3.6983766 q 0,-0.153911 0.07695,-0.240486 0.07696,-0.096194 0.182769,-0.1442916 0.115434,-0.048097 0.250106,-0.057717 0.134672,-0.019239 0.250105,-0.019239 0.365539,0 0.634883,0.1442916 0.269345,0.1346722 0.298203,0.5290692 h 1.298624 Q 72.248149,3.4482712 72.04614,3.1500685 71.853752,2.8422465 71.555549,2.6594771 71.257346,2.4767077 70.872569,2.3997522 q -0.375158,-0.076955 -0.779175,-0.076955 -0.404016,0 -0.788794,0.076955 -0.384778,0.067336 -0.6926,0.2501055 -0.307822,0.1731499 -0.500211,0.480972 -0.182769,0.307822 -0.182769,0.788794 0,0.327061 0.134672,0.5579276 0.134672,0.2212471 0.355919,0.3751581 0.221248,0.1442916 0.500211,0.240486 0.288584,0.086575 0.586786,0.1539111 0.731078,0.153911 1.135094,0.3078221 0.413636,0.153911 0.413636,0.4617331 0,0.1827693 -0.08658,0.3078221 -0.08657,0.1154332 -0.221247,0.1923888 -0.125053,0.067336 -0.288583,0.1058138 -0.153911,0.028858 -0.298203,0.028858 -0.202008,0 -0.394397,-0.048097 Q 69.583564,6.5553503 69.439272,6.4591559 69.294981,6.3533421 69.198786,6.199431 69.112211,6.0359006 69.112211,5.8146534 Z"
     id="path1017"
     style="font-weight:bold;font-size:9.61944px;font-family:'Helvetica Neue';-inkscape-font-specification:'Helvetica Neue Bold';text-align:center;letter-spacing:0px;text-anchor:middle;fill:url(#linearGradient1044);stroke-width:0.124397" />
  <defs
     id="defs8">
    <linearGradient
       inkscape:collect="always"
       id="linearGradient989">
      <stop
         style="stop-color:#135abf;stop-opacity:1;"
         offset="0"
         id="stop985" />
      <stop
         style="stop-color:#00aac0;stop-opacity:1;"
         offset="1"
         id="stop987" />
    </linearGradient>
    <linearGradient
       inkscape:collect="always"
       xlink:href="#linearGradient989"
       id="linearGradient1020"
       gradientUnits="userSpaceOnUse"
       x1="0.5257493"
       y1="3.9917695"
       x2="72.421299"
       y2="3.9917695" />
    <linearGradient
       inkscape:collect="always"
       xlink:href="#linearGradient989"
       id="linearGradient1022"
       gradientUnits="userSpaceOnUse"
       x1="0.5257493"
       y1="3.9917695"
       x2="72.421299"
       y2="3.9917695" />
    <linearGradient
       inkscape:collect="always"
       xlink:href="#linearGradient989"
       id="linearGradient1024"
       gradientUnits="userSpaceOnUse"
       x1="0.5257493"
       y1="3.9917695"
       x2="72.421299"
       y2="3.9917695" />
    <linearGradient
       inkscape:collect="always"
       xlink:href="#linearGradient989"
       id="linearGradient1026"
       gradientUnits="userSpaceOnUse"
       x1="0.5257493"
       y1="3.9917695"
       x2="72.421299"
       y2="3.9917695" />
    <linearGradient
       inkscape:collect="always"
       xlink:href="#linearGradient989"
       id="linearGradient1028"
       gradientUnits="userSpaceOnUse"
       x1="0.5257493"
       y1="3.9917695"
       x2="72.421299"
       y2="3.9917695" />
    <linearGradient
       inkscape:collect="always"
       xlink:href="#linearGradient989"
       id="linearGradient1030"
       gradientUnits="userSpaceOnUse"
       x1="0.5257493"
       y1="3.9917695"
       x2="72.421299"
       y2="3.9917695" />
    <linearGradient
       inkscape:collect="always"
       xlink:href="#linearGradient989"
       id="linearGradient1032"
       gradientUnits="userSpaceOnUse"
       x1="0.5257493"
       y1="3.9917695"
       x2="72.421299"
       y2="3.9917695" />
    <linearGradient
       inkscape:collect="always"
       xlink:href="#linearGradient989"
       id="linearGradient1034"
       gradientUnits="userSpaceOnUse"
       x1="0.5257493"
       y1="3.9917695"
       x2="72.421299"
       y2="3.9917695" />
    <linearGradient
       inkscape:collect="always"
       xlink:href="#linearGradient989"
       id="linearGradient1036"
       gradientUnits="userSpaceOnUse"
       x1="0.5257493"
       y1="3.9917695"
       x2="72.421299"
       y2="3.9917695" />
    <linearGradient
       inkscape:collect="always"
       xlink:href="#linearGradient989"
       id="linearGradient1038"
       gradientUnits="userSpaceOnUse"
       x1="0.5257493"
       y1="3.9917695"
       x2="72.421299"
       y2="3.9917695" />
    <linearGradient
       inkscape:collect="always"
       xlink:href="#linearGradient989"
       id="linearGradient1040"
       gradientUnits="userSpaceOnUse"
       x1="0.5257493"
       y1="3.9917695"
       x2="72.421299"
       y2="3.9917695" />
    <linearGradient
       inkscape:collect="always"
       xlink:href="#linearGradient989"
       id="linearGradient1042"
       gradientUnits="userSpaceOnUse"
       x1="0.5257493"
       y1="3.9917695"
       x2="72.421299"
       y2="3.9917695" />
    <linearGradient
       inkscape:collect="always"
       xlink:href="#linearGradient989"
       id="linearGradient1044"
       gradientUnits="userSpaceOnUse"
       x1="0.5257493"
       y1="3.9917695"
       x2="72.421299"
       y2="3.9917695" />
  </defs>
  <sodipodi:namedview
     id="namedview6"
     pagecolor="#505050"
     bordercolor="#eeeeee"
     borderopacity="1"
     inkscape:showpageshadow="0"
     inkscape:pageopacity="0"
     inkscape:pagecheckerboard="0"
     inkscape:deskcolor="#505050"
     showgrid="false"
     inkscape:zoom="4.8306177"
     inkscape:cx="42.127118"
     inkscape:cy="-7.8664889"
     inkscape:window-width="1366"
     inkscape:window-height="656"
     inkscape:window-x="0"
     inkscape:window-y="25"
     inkscape:window-maximized="0"
     inkscape:current-layer="svg4"
     inkscape:lockguides="false" />
</svg>
